<svg width="176" height="170" viewBox="0 0 176 170" fill="none" xmlns="http://www.w3.org/2000/svg">
<path d="M176 10.798V127.393C175.481 127.502 175.541 128.023 175.409 128.351C172.765 134.98 167.719 138.567 160.899 139.766C157.253 140.409 153.572 140.869 149.95 141.693C131.288 145.899 114.533 154.127 99.4196 165.822C92.1768 171.433 84.1856 171.372 76.9187 165.761C58.6789 151.679 38.2905 142.808 15.3912 139.73C5.86695 138.446 -0.0479919 130.386 0.000293387 122.146C0.169292 91.5093 0.0727183 60.8609 0.0727183 30.2245C0.0727183 24.8195 0.0123485 19.4145 0.0968477 14.0095C0.217561 6.47161 6.62744 0.0365193 14.0272 0.000162842C17.1778 -0.011956 20.2801 0.654552 23.3583 1.26049C42.5155 5.0658 59.8015 13.0521 75.4218 24.7952C76.46 25.5709 76.8221 26.3465 76.8221 27.631C76.7859 60.5094 76.798 93.3999 76.798 126.278C76.798 126.908 76.7738 127.539 76.798 128.181C77.1843 136.288 84.5357 141.463 91.875 138.785C96.5828 137.076 99.2627 132.871 99.2627 127.163C99.2627 94.6239 99.2989 62.0848 99.1902 29.5579C99.1902 26.9403 100.035 25.4618 102.063 23.9833C119.253 11.4282 138.229 3.29647 159.305 0.218293C164.894 -0.593668 169.566 0.969643 173.163 5.46572C174.455 7.07753 175.058 9.01654 175.976 10.8101L176 10.798Z" fill="#F5F5F5"/>
</svg>
