<svg width="68" height="66" viewBox="0 0 68 66" fill="none" xmlns="http://www.w3.org/2000/svg">
<path d="M68 4.19218V49.4585C67.7994 49.5009 67.8228 49.7032 67.7715 49.8302C66.7501 52.4038 64.8006 53.7965 62.1655 54.2623C60.7569 54.5116 59.3345 54.6904 57.9353 55.0104C50.7249 56.643 44.2513 59.8376 38.4121 64.3779C35.6138 66.5563 32.5263 66.5328 29.7186 64.3544C22.6714 58.8872 14.7941 55.4432 5.94661 54.2482C2.26678 53.7494 -0.0185423 50.6206 0.000113354 47.4213C0.0654082 35.5271 0.0280957 23.6283 0.0280957 11.7342C0.0280957 9.63581 0.00477101 7.5374 0.0374184 5.43899C0.0840576 2.51251 2.5606 0.0141781 5.41958 6.3221e-05C6.63686 -0.00464173 7.83549 0.25412 9.02479 0.489368C16.4264 1.96672 23.1051 5.06729 29.1402 9.62639C29.5413 9.92751 29.6813 10.2286 29.6813 10.7273C29.6673 23.4919 29.6719 36.2611 29.6719 49.0257C29.6719 49.2703 29.6626 49.515 29.6719 49.7643C29.8212 52.912 32.6615 54.921 35.4972 53.8812C37.3161 53.2178 38.3515 51.5852 38.3515 49.3691C38.3515 36.7363 38.3655 24.1035 38.3235 11.4754C38.3235 10.4592 38.65 9.88516 39.4335 9.31115C46.0749 4.43682 53.4066 1.27981 61.5498 0.0847489C63.7092 -0.230483 65.5141 0.37645 66.904 2.12199C67.403 2.74775 67.6362 3.50054 67.9907 4.19687L68 4.19218Z" fill="#C9D6DD"/>
</svg>
