<svg width="90" height="90" viewBox="0 0 90 90" fill="none" xmlns="http://www.w3.org/2000/svg">
<circle cx="45" cy="45" r="45" fill="#F5F5F5"/>
<g clip-path="url(#clip0_17_156)">
<path d="M28.9193 20.1451C33.2097 18.7661 38.9157 18 45 18C51.0843 18 56.7903 18.7661 61.0807 20.1451C65.1549 21.4585 67.5 23.2205 67.5 24.9716C67.5 26.7227 65.1657 28.4848 61.0807 29.8091C56.7903 31.1881 51.0843 31.9542 45 31.9542C38.9157 31.9542 33.2097 31.1881 28.9193 29.8091C24.8343 28.4957 22.5 26.7337 22.5 24.9716C22.5 23.2096 24.8343 21.4585 28.9193 20.1451Z" fill="#B3D555"/>
<path d="M67.5 65.0284C67.5 66.7795 65.1657 68.5416 61.0807 69.8549C56.7903 71.2339 51.0843 72 45 72C38.9157 72 33.2097 71.2339 28.9193 69.8549C24.8451 68.5416 22.5 66.7795 22.5 65.0284V58.2975C23.6023 59.5999 25.6772 60.7819 28.6275 61.7232C33.0043 63.135 38.8184 63.9121 45 63.9121C51.1816 63.9121 56.9957 63.135 61.3725 61.7232C64.312 60.771 66.3977 59.5999 67.5 58.2975V65.0284Z" fill="#463C33"/>
<path d="M67.5 56.0977C67.5 57.8488 65.1657 59.6109 61.0807 60.9242C56.7903 62.3032 51.0843 63.0693 45 63.0693C38.9157 63.0693 33.2097 62.3032 28.9193 60.9242C24.8451 59.6109 22.5 57.8488 22.5 56.0977C22.5 54.9266 23.5267 53.9526 24.4885 53.2959C25.58 53.9526 26.9633 54.5655 28.6275 55.1017C33.0043 56.5136 38.8184 57.2906 45 57.2906C51.1816 57.2906 56.9957 56.5136 61.3725 55.1017C63.0367 54.5655 64.42 53.9635 65.5115 53.2959C66.4733 53.9526 67.5 54.9376 67.5 56.0977Z" fill="#B3D555"/>
<path d="M67.5 49.4653C67.5 51.2165 65.1657 52.9785 61.0807 54.2919C56.7903 55.6709 51.0843 56.437 45 56.437C38.9157 56.437 33.2097 55.6709 28.9193 54.2919C24.8451 52.9785 22.5 51.2165 22.5 49.4653V42.7345C23.6023 44.0369 25.6772 45.2189 28.6275 46.1601C33.0043 47.572 38.8184 48.349 45 48.349C51.1816 48.349 56.9957 47.572 61.3725 46.1601C64.312 45.2079 66.3977 44.0369 67.5 42.7345V49.4653Z" fill="#463C33"/>
<path d="M67.5 40.5346C67.5 42.2857 65.1657 44.0478 61.0807 45.3721C56.7903 46.7511 51.0843 47.5172 45 47.5172C38.9157 47.5172 33.2097 46.7511 28.9193 45.3721C24.8451 44.0588 22.5 42.2967 22.5 40.5346C22.5 39.3636 23.5267 38.3895 24.4885 37.7328C25.58 38.4005 26.9633 39.0024 28.6275 39.5387C33.0043 40.9505 38.8184 41.7276 45 41.7276C51.1816 41.7276 56.9957 40.9505 61.3725 39.5387C63.0367 39.0024 64.42 38.4005 65.5115 37.7328C66.4733 38.3895 67.5 39.3745 67.5 40.5346Z" fill="#B3D555"/>
<path d="M61.0807 38.7398C56.7903 40.1188 51.0843 40.8849 45 40.8849C38.9157 40.8849 33.2097 40.1188 28.9193 38.7398C24.8451 37.4265 22.5 35.6644 22.5 33.9133V27.1824C23.6023 28.4848 25.6772 29.6668 28.6275 30.6081C33.0043 32.0199 38.8184 32.7969 45 32.7969C51.1816 32.7969 56.9957 32.0199 61.3725 30.6081C64.312 29.6559 66.3977 28.4848 67.5 27.1824V33.9133C67.5 35.6644 65.1657 37.4265 61.0807 38.7398Z" fill="#463C33"/>
</g>
<defs>
<clipPath id="clip0_17_156">
<rect width="45" height="54" fill="white" transform="translate(22.5 18)"/>
</clipPath>
</defs>
</svg>
