<svg width="122" height="122" viewBox="0 0 122 122" fill="none" xmlns="http://www.w3.org/2000/svg">
<circle cx="61" cy="61" r="61" fill="white"/>
<g clip-path="url(#clip0_94_252)">
<path d="M39.2017 27.3078C45.0175 25.4385 52.7524 24.4 61 24.4C69.2476 24.4 76.9825 25.4385 82.7983 27.3078C88.3211 29.0881 91.5 31.4767 91.5 33.8504C91.5 36.2241 88.3357 38.6127 82.7983 40.4078C76.9825 42.2771 69.2476 43.3157 61 43.3157C52.7524 43.3157 45.0175 42.2771 39.2017 40.4078C33.6643 38.6275 30.5 36.239 30.5 33.8504C30.5 31.4618 33.6643 29.0881 39.2017 27.3078Z" fill="#B3D555"/>
<path d="M91.5 88.1496C91.5 90.5233 88.3357 92.9119 82.7983 94.6922C76.9825 96.5615 69.2476 97.6 61 97.6C52.7524 97.6 45.0175 96.5615 39.2017 94.6922C33.6789 92.9119 30.5 90.5233 30.5 88.1496V79.0255C31.9942 80.791 34.8069 82.3932 38.8062 83.6691C44.7392 85.583 52.6206 86.6363 61 86.6363C69.3794 86.6363 77.2608 85.583 83.1938 83.6691C87.1784 82.3784 90.0058 80.791 91.5 79.0255V88.1496Z" fill="#463C33"/>
<path d="M91.5 76.0435C91.5 78.4173 88.3357 80.8058 82.7983 82.5861C76.9825 84.4554 69.2476 85.4939 61 85.4939C52.7524 85.4939 45.0175 84.4554 39.2017 82.5861C33.6789 80.8058 30.5 78.4173 30.5 76.0435C30.5 74.4561 31.8917 73.1357 33.1955 72.2455C34.6751 73.1357 36.5502 73.9665 38.8062 74.6935C44.7392 76.6073 52.6206 77.6606 61 77.6606C69.3794 77.6606 77.2608 76.6073 83.1938 74.6935C85.4498 73.9665 87.3249 73.1505 88.8045 72.2455C90.1083 73.1357 91.5 74.4709 91.5 76.0435Z" fill="#B3D555"/>
<path d="M91.5 67.053C91.5 69.4267 88.3357 71.8153 82.7983 73.5956C76.9825 75.4649 69.2476 76.5034 61 76.5034C52.7524 76.5034 45.0175 75.4649 39.2017 73.5956C33.6789 71.8153 30.5 69.4267 30.5 67.053V57.929C31.9942 59.6944 34.8069 61.2967 38.8062 62.5726C44.7392 64.4864 52.6206 65.5397 61 65.5397C69.3794 65.5397 77.2608 64.4864 83.1938 62.5726C87.1784 61.2819 90.0058 59.6944 91.5 57.929V67.053Z" fill="#463C33"/>
<path d="M91.5 54.947C91.5 57.3207 88.3357 59.7093 82.7983 61.5044C76.9825 63.3737 69.2476 64.4122 61 64.4122C52.7524 64.4122 45.0175 63.3737 39.2017 61.5044C33.6789 59.7241 30.5 57.3355 30.5 54.947C30.5 53.3595 31.8917 52.0391 33.1955 51.149C34.6751 52.054 36.5502 52.8699 38.8062 53.5969C44.7392 55.5107 52.6206 56.5641 61 56.5641C69.3794 56.5641 77.2608 55.5107 83.1938 53.5969C85.4498 52.8699 87.3249 52.054 88.8045 51.149C90.1083 52.0391 91.5 53.3744 91.5 54.947Z" fill="#B3D555"/>
<path d="M82.7983 52.5139C76.9825 54.3832 69.2476 55.4217 61 55.4217C52.7524 55.4217 45.0175 54.3832 39.2017 52.5139C33.6789 50.7336 30.5 48.345 30.5 45.9713V36.8472C31.9942 38.6127 34.8069 40.215 38.8062 41.4908C44.7392 43.4047 52.6206 44.458 61 44.458C69.3794 44.458 77.2608 43.4047 83.1938 41.4908C87.1784 40.2001 90.0058 38.6127 91.5 36.8472V45.9713C91.5 48.345 88.3357 50.7336 82.7983 52.5139Z" fill="#463C33"/>
</g>
<defs>
<clipPath id="clip0_94_252">
<rect width="61" height="73.2" fill="white" transform="translate(30.5 24.4)"/>
</clipPath>
</defs>
</svg>
