<svg width="234" height="170" viewBox="0 0 234 170" fill="none" xmlns="http://www.w3.org/2000/svg">
<path d="M116.62 113.814C113.038 113.887 109.651 113.086 106.398 111.711C74.0073 98.016 41.6043 84.3272 9.23804 70.5774C3.27712 68.0463 -0.0243202 63.3387 0.000134896 56.8825C0.02459 50.4325 3.34437 45.7738 9.31141 43.2427C41.6899 29.5112 74.0807 15.8102 106.478 2.12149C113.184 -0.715301 119.934 -0.703074 126.635 2.13372C158.915 15.7919 191.19 29.4867 223.471 43.1449C229.56 45.7249 232.978 50.3347 233.014 56.8581C233.051 63.3876 229.682 68.083 223.605 70.663C191.257 84.37 158.909 98.0588 126.555 111.754C123.37 113.105 120.056 113.838 116.614 113.814H116.62Z" fill="#F5F5F5"/>
<path d="M189.723 95.5338C189.723 107.719 189.704 119.677 189.723 131.636C189.735 139.272 186.715 145.483 181.01 150.448C178.699 152.459 175.954 153.81 173.264 155.216C152.698 165.971 130.786 170.519 107.676 168.899C88.9187 167.585 71.3049 162.186 55.1156 152.557C47.4245 147.984 43.4078 140.984 43.3466 131.966C43.261 119.928 43.3283 107.884 43.3283 95.815C44.3798 95.6133 45.1135 96.2369 45.9083 96.567C65.3073 104.735 84.6635 113.001 104.111 121.059C112.652 124.599 121.377 124.305 129.869 120.759C149.029 112.756 168.135 104.607 187.265 96.5181C188.023 96.2002 188.787 95.9067 189.729 95.5338H189.723Z" fill="#F5F5F5"/>
<path d="M209.14 149.745C206.853 149.745 204.567 149.793 202.28 149.732C199.003 149.647 197.059 147.66 197.041 144.419C197.016 140.531 197.077 136.643 197.022 132.76C196.973 129.294 198.178 126.359 200.636 123.969C201.467 123.162 201.779 122.783 200.752 121.731C194.846 115.734 195.946 106.905 203.136 102.479C204.182 101.837 204.389 101.183 204.371 100.119C204.322 97.0683 204.414 94.0175 204.322 90.9729C204.286 89.7501 204.579 89.0531 205.802 88.6068C208.143 87.7448 210.46 86.7788 212.716 85.7028C214.043 85.0731 214.227 85.4766 214.214 86.7299C214.165 91.2235 214.227 95.7233 214.178 100.223C214.165 101.317 214.465 101.972 215.462 102.589C222.492 106.936 223.55 115.789 217.779 121.743C217.063 122.483 216.556 122.807 217.644 123.773C220.426 126.243 221.502 129.52 221.514 133.176C221.526 136.759 221.569 140.342 221.508 143.924C221.441 147.91 219.539 149.732 215.541 149.757C213.407 149.769 211.274 149.757 209.14 149.757V149.745Z" fill="#F5F5F5"/>
</svg>
