<svg width="74" height="74" viewBox="0 0 74 74" fill="none" xmlns="http://www.w3.org/2000/svg">
<g clip-path="url(#clip0_17_118)">
<path d="M74.0001 14.4755V59.8487C73.7374 60.0496 73.8147 60.374 73.7529 60.6366C72.3779 67.2178 68.4694 71.5126 62.0427 73.4592C61.3166 73.6755 60.575 73.8299 59.8489 74.0153H14.1821C14.074 73.8299 13.8886 73.8917 13.7341 73.8608C5.68524 72.4087 0.0464085 65.9047 0.0309597 57.9022C6.1997e-05 43.9828 -0.0153869 30.0634 0.0309597 16.1439C0.0618574 7.21451 7.18378 0.0771392 16.1132 0.0307926C30.0481 -0.0155539 43.9984 -0.0155539 57.9487 0.0307926C65.5186 0.0616903 71.9145 5.2834 73.6138 12.668C73.7529 13.2705 73.7374 13.9039 74.0155 14.46L74.0001 14.4755ZM36.9692 62.4596C38.4368 62.5214 39.8735 62.3669 41.2948 62.1043C47.5207 60.9765 52.6497 57.964 56.7128 53.0976C57.4852 52.1552 57.6243 51.2128 57.1454 50.1005C53.175 40.9857 43.3495 35.6095 33.5395 37.2934C25.7378 38.6375 20.2226 43.0404 16.8702 50.1932C16.4067 51.1819 16.4994 52.0934 17.2101 52.9431C22.3546 59.1535 28.9667 62.2742 36.9846 62.4596H36.9692ZM37.0001 11.5865C30.6351 11.5865 25.4598 16.7619 25.4443 23.1114C25.4443 29.5072 30.6197 34.698 37.0001 34.698C43.3495 34.698 48.5404 29.5226 48.5558 23.1732C48.5558 16.7773 43.3804 11.5865 37.0001 11.5865Z" fill="#B3D555"/>
<path d="M36.9691 62.4597C28.9512 62.2743 22.3236 59.1536 17.1946 52.9432C16.4839 52.0935 16.4067 51.1666 16.8547 50.1933C20.2071 43.0405 25.7224 38.6375 33.524 37.2935C43.334 35.6096 53.1595 41.0012 57.1299 50.1006C57.6242 51.2129 57.4852 52.1707 56.6973 53.0977C52.6497 57.9641 47.5052 60.9766 41.2793 62.1044C39.858 62.367 38.4213 62.5215 36.9537 62.4597H36.9691Z" fill="#F5F5F5"/>
<path d="M37 11.5712C43.3958 11.5712 48.5712 16.762 48.5557 23.1578C48.5557 29.5073 43.3495 34.6826 37 34.6826C30.6196 34.6826 25.4288 29.4918 25.4442 23.096C25.4442 16.7465 30.6351 11.5712 37 11.5712Z" fill="#F5F5F5"/>
</g>
<defs>
<clipPath id="clip0_17_118">
<rect width="74" height="74" fill="white"/>
</clipPath>
</defs>
</svg>
