<svg width="167" height="205" viewBox="0 0 167 205" fill="none" xmlns="http://www.w3.org/2000/svg">
<path d="M135.807 204.993H31.3443C30.6926 204.553 29.9745 204.179 29.3959 203.658C5.97508 182.653 -3.62068 156.482 1.22042 125.358C3.84047 108.517 11.561 93.9333 23.411 81.6652C24.5947 80.4437 24.6147 79.6094 23.8632 78.1276C18.9224 68.4026 17.2732 58.0902 19.2881 47.3506C22.3005 31.2647 31.5438 19.4304 45.0896 10.8935C60.1649 1.38878 76.6898 -1.6749 94.2388 0.841455C111.422 3.31109 125.939 10.8001 137.091 24.3697C149.725 39.7482 152.026 60.9937 142.942 78.3879C142.231 79.7495 142.364 80.4637 143.415 81.5584C156.821 95.5485 164.594 112.195 166.556 131.545C167.906 144.894 166.184 157.83 161.289 170.298C155.863 184.108 147.491 195.782 135.82 205L135.807 204.993ZM46.4595 54.2656C46.4462 61.1072 49.5451 66.0397 54.4261 68.6229C56.2947 69.6107 58.0502 69.811 60.1117 69.0901C66.3293 66.9141 72.7664 65.666 79.3431 65.3456C88.8325 64.8784 98.1157 66.0197 107.12 69.1769C108.224 69.564 109.354 69.9044 110.604 69.4305C115.937 67.4014 119.249 63.6302 120.26 58.0101C121.224 52.6303 119.109 48.0315 115.931 43.9666C99.5321 22.9747 67.9718 22.701 51.1543 43.7196C48.3746 47.1904 46.5326 51.1485 46.4595 54.279V54.2656Z" fill="#F5F5F5"/>
</svg>
